<svg id="Group_7761" data-name="Group 7761" xmlns="http://www.w3.org/2000/svg" xmlns:xlink="http://www.w3.org/1999/xlink" width="145" height="145" viewBox="0 0 145 145">
  <defs>
    <clipPath id="clip-path">
      <rect id="Rectangle_3149" data-name="Rectangle 3149" width="145" height="145" fill="#d6001c"/>
    </clipPath>
  </defs>
  <g id="Group_7438" data-name="Group 7438" transform="translate(0 0)" clip-path="url(#clip-path)">
    <path id="Path_17202" data-name="Path 17202" d="M72.418,144.836a72.418,72.418,0,1,1,72.418-72.418,72.5,72.5,0,0,1-72.418,72.418m0-132.765a60.347,60.347,0,1,0,60.347,60.347A60.418,60.418,0,0,0,72.418,12.071" transform="translate(0 0.004)" fill="#d6001c"/>
    <path id="Path_17203" data-name="Path 17203" d="M12.321,51.444h-.878a4.877,4.877,0,0,1-4.871-4.871V8.04a4.871,4.871,0,0,1,4.871-4.871h.878A4.871,4.871,0,0,1,17.192,8.04V46.573a4.877,4.877,0,0,1-4.871,4.871" transform="translate(60.537 29.199)" fill="#d6001c"/>
    <path id="Path_17204" data-name="Path 17204" d="M7.673,9.665,8.766,8.47a4.5,4.5,0,0,1,6.363-.255l21.7,20.037a4.5,4.5,0,0,1,.255,6.352L35.973,35.8a4.467,4.467,0,0,1-6.332.255L7.919,16.017a4.481,4.481,0,0,1-.245-6.352" transform="translate(59.618 64.688)" fill="#d6001c"/>
  </g>
</svg>
