<svg width="184" height="133" viewBox="0 0 184 133" fill="none" xmlns="http://www.w3.org/2000/svg">
<g clip-path="url(#clip0_240_1079)">
<path d="M56.9566 76.4561L55.8881 88.0578H58.5377L57.4281 76.4561H56.9566Z" fill="#E7E9E2"/>
<path d="M59.368 23.7629C59.384 23.9997 59.4002 24.1772 59.4164 24.2956C59.4275 24.3951 59.4516 24.4927 59.4881 24.5859C59.5007 24.6349 59.5239 24.6806 59.5561 24.7197C59.5883 24.7588 59.6287 24.7903 59.6744 24.8121C59.8162 24.8632 59.9668 24.8852 60.1173 24.8765C60.2654 24.8859 60.4138 24.8639 60.5528 24.8121C60.6432 24.7633 60.7122 24.6827 60.7464 24.5859C60.766 24.5105 60.7875 24.4137 60.8112 24.2956C60.8372 24.1191 60.8534 23.9412 60.8595 23.7629C60.8686 23.5262 60.8774 23.2063 60.8829 22.802C60.8885 22.3977 60.8917 21.8694 60.8917 21.2132C60.8917 20.5355 60.8882 19.9903 60.8829 19.5816C60.8777 19.1729 60.8686 18.8492 60.8595 18.606C60.8535 18.4248 60.8374 18.244 60.8112 18.0646C60.7877 17.9462 60.7662 17.8493 60.7464 17.774C60.7107 17.6759 60.6423 17.5931 60.5528 17.5396C60.4153 17.4816 60.2661 17.457 60.1173 17.4678C59.9661 17.4578 59.8147 17.4824 59.6744 17.5396C59.6289 17.5638 59.5889 17.5971 59.5569 17.6374C59.5248 17.6777 59.5014 17.7242 59.4881 17.774C59.4516 17.8673 59.4275 17.965 59.4164 18.0646C59.4003 18.1818 59.3841 18.364 59.368 18.606C59.3519 18.848 59.3411 19.1726 59.3358 19.5816C59.3305 19.9906 59.3285 20.5355 59.3285 21.2132C59.3285 21.8694 59.3309 22.399 59.3358 22.802C59.3411 23.2072 59.3519 23.5262 59.368 23.7629Z" fill="#E7E9E2"/>
<path d="M57.0204 54.9128C57.0636 55.5404 57.1065 56.0114 57.1493 56.3258C57.1791 56.5902 57.2436 56.8494 57.3411 57.0969C57.3741 57.2267 57.4353 57.3475 57.5201 57.451C57.605 57.5545 57.7116 57.6381 57.8323 57.6958C58.2085 57.8326 58.6087 57.8911 59.0083 57.8678C59.401 57.8928 59.7946 57.8342 60.163 57.6958C60.4029 57.5676 60.5859 57.3538 60.6755 57.0969C60.7312 56.8977 60.7886 56.6396 60.8457 56.3258C60.918 55.858 60.9611 55.386 60.9749 54.9128C61.0018 54.2853 61.0233 53.4356 61.0393 52.3639C61.0553 51.2922 61.062 49.8871 61.0592 48.1486C61.0592 46.3502 61.0526 44.9085 61.0393 43.8238C61.026 42.739 61.0046 41.8759 60.9749 41.2344C60.9617 40.7537 60.9186 40.2742 60.8457 39.7989C60.7886 39.4851 60.7312 39.2285 60.6755 39.0278C60.5822 38.7675 60.4009 38.548 60.163 38.4072C59.7988 38.2524 59.4031 38.1861 59.0083 38.2136C58.6067 38.1879 58.2045 38.2542 57.8323 38.4072C57.7122 38.4713 57.6065 38.5595 57.522 38.6663C57.4375 38.773 57.3759 38.8961 57.3411 39.0278C57.2438 39.2753 57.1793 39.5346 57.1493 39.7989C57.1065 40.1126 57.0635 40.5899 57.0204 41.2344C56.9774 41.879 56.9486 42.7389 56.9361 43.8238C56.9235 44.9086 56.9147 46.3501 56.9147 48.1486C56.9147 49.8895 56.9218 51.2946 56.9361 52.3639C56.9486 53.4345 56.9791 54.2844 57.0204 54.9128Z" fill="#E7E9E2"/>
<path d="M32.5409 17.7249L32.1393 22.0998H33.1378L32.7183 17.7249H32.5409Z" fill="#E7E9E2"/>
<path d="M78.455 38.9017H76.8309V48.1058H78.6269C79.2518 48.1058 79.6934 47.7561 79.9517 47.0566C80.2101 46.3572 80.338 45.0375 80.3354 43.0977C80.3354 41.3851 80.1861 40.2573 79.8873 39.7141C79.752 39.4552 79.545 39.2408 79.2909 39.0967C79.0368 38.9526 78.7466 38.8849 78.455 38.9017Z" fill="#E7E9E2"/>
<path d="M24.8141 23.7628C24.8301 23.9996 24.8463 24.1771 24.8627 24.2955C24.8737 24.395 24.8977 24.4926 24.9342 24.5858C24.9469 24.6348 24.9702 24.6805 25.0024 24.7196C25.0346 24.7586 25.075 24.7902 25.1207 24.812C25.2625 24.8633 25.4131 24.8853 25.5636 24.8764C25.7117 24.8856 25.8601 24.8636 25.9992 24.812C26.0894 24.7631 26.1584 24.6826 26.1928 24.5858C26.2124 24.5105 26.2341 24.4138 26.2554 24.2955C26.2824 24.119 26.2992 23.9412 26.3055 23.7628C26.3146 23.5261 26.3237 23.2062 26.329 22.8019C26.3342 22.3976 26.336 21.8693 26.336 21.2131C26.336 20.5354 26.3342 19.9902 26.329 19.5815C26.3237 19.1728 26.3146 18.8491 26.3055 18.6059C26.2993 18.4246 26.2826 18.2438 26.2554 18.0645C26.2341 17.9473 26.2124 17.8494 26.1928 17.7739C26.1569 17.6759 26.0886 17.5931 25.9992 17.5395C25.8616 17.4818 25.7124 17.4572 25.5636 17.4677C25.4124 17.4575 25.261 17.4821 25.1207 17.5395C25.0753 17.5637 25.0353 17.597 25.0032 17.6373C24.9711 17.6776 24.9476 17.7241 24.9342 17.7739C24.8978 17.8672 24.8738 17.9649 24.8627 18.0645C24.8466 18.1817 24.8302 18.3639 24.8141 18.6059C24.798 18.8479 24.7848 19.1725 24.7801 19.5815C24.7754 19.9905 24.7731 20.5354 24.7731 21.2131C24.7731 21.8693 24.7766 22.3984 24.7801 22.8019C24.7836 23.2053 24.798 23.5261 24.8141 23.7628Z" fill="#E7E9E2"/>
<path d="M139.063 69.9063L133.422 90.1985V102.099H126.197V90.2847L120.3 69.9063V69.6912H127.224C127.68 71.7192 128.043 73.3389 128.314 74.5505C128.586 75.762 128.799 76.7327 128.954 77.4624C129.111 78.1903 129.232 78.7396 129.318 79.1103C129.404 79.4815 129.474 79.8381 129.532 80.1806H129.96C130.016 79.838 130.087 79.4812 130.173 79.1103C130.26 78.7394 130.381 78.1901 130.535 77.4624C130.693 76.7342 130.914 75.7636 131.199 74.5505C131.483 73.3374 131.868 71.7176 132.353 69.6912H139.063V69.9063ZM120.727 102.099H113.59C113.504 101.843 113.425 101.565 113.353 101.266C113.281 100.966 113.203 100.51 113.119 99.8957C113.034 99.2824 112.921 98.4328 112.778 97.3468C112.635 96.2608 112.464 94.7764 112.264 92.8936C112.18 92.1514 112.094 91.552 112.007 91.0953C111.95 90.735 111.85 90.3827 111.71 90.0462C111.63 89.8419 111.478 89.6747 111.281 89.5774C111.106 89.5048 110.917 89.4683 110.727 89.4699H109.7V102.097H102.99V69.6912H112.778C113.993 69.6571 115.205 69.8237 116.367 70.1843C117.247 70.4706 118.027 71.0055 118.611 71.7245C119.208 72.5169 119.604 73.4423 119.765 74.4213C119.998 75.743 120.105 77.0836 120.086 78.4254C120.103 79.7477 120.046 81.07 119.916 82.3861C119.846 83.1567 119.666 83.9134 119.382 84.6329C119.19 85.1032 118.89 85.5211 118.505 85.8523C118.127 86.1476 117.727 86.4126 117.308 86.6448V86.9011C117.478 87.0447 117.655 87.2023 117.842 87.3728C118.07 87.6158 118.238 87.9086 118.333 88.228C118.636 88.9839 118.872 89.7652 119.037 90.5627C119.348 92.0121 119.584 93.4766 119.744 94.9503C119.916 96.2628 120.044 97.319 120.127 98.1188C120.211 98.9186 120.29 99.5605 120.364 100.045C120.436 100.53 120.491 100.901 120.534 101.158C120.575 101.406 120.64 101.65 120.728 101.886L120.727 102.099ZM100.297 76.5406H92.6892V82.2355H100.168V88.7858H92.6892V94.9072H100.254V102.099H85.9776V69.6912H100.297L100.297 76.5406ZM83.4136 54.1847C82.2685 54.6218 81.0478 54.826 79.8229 54.7853H76.8315V64.5451H70.1202V32.1369H79.822C81.0448 32.0977 82.2638 32.2938 83.4127 32.7144C84.3406 33.0904 85.1261 33.7499 85.6572 34.5988C86.2737 35.6485 86.6662 36.8147 86.8098 38.0236C87.0448 39.7615 87.1524 41.5143 87.132 43.2679C87.151 45.0639 87.0434 46.859 86.8098 48.6399C86.6667 49.896 86.2748 51.1111 85.6572 52.2141C85.1397 53.0944 84.3527 53.7847 83.4127 54.1829M79.9526 102.099H69.4799L65.6329 69.6912H72.8987L74.6947 92.5098H75.1634L76.8733 69.6912H84.0117L79.9526 102.099ZM59.3926 102.099L58.8361 94.6078H55.5878L55.0753 102.099H48.3233L51.7845 69.6912H63.0692L66.3174 102.099H59.3926ZM47.2548 102.099H33.6199V69.6912H40.332V94.9072H47.2551L47.2548 102.099ZM32.2951 32.1372H49.1777V38.9866H44.0926V64.5454H37.3828V38.9864H32.2951V32.1372ZM31.8326 27.3963H29.2843L30.591 15.1746H34.8451L36.0712 27.3963H33.4605L33.2508 24.5703H32.0262L31.8326 27.3963ZM30.8628 59.8786C30.6651 61.0022 30.1956 62.0603 29.4952 62.9607C28.8111 63.759 27.9029 64.3332 26.8884 64.6087C25.5582 64.9668 24.1837 65.1329 22.8065 65.1018C20.1282 65.1018 18.1623 64.5949 16.9086 63.5812C15.655 62.5676 15.0272 60.7915 15.0253 58.2532C15.0253 57.4247 15.0468 56.5897 15.0897 55.7483C15.1097 55.0625 15.2029 54.3808 15.3677 53.7148H20.968C20.9092 53.8944 20.8801 54.0824 20.8819 54.2714V54.9133C20.8819 56.1702 21.0103 57.0338 21.2673 57.5041C21.5243 57.9744 22.0797 58.2093 22.9336 58.2087C23.7889 58.2087 24.3519 58.0013 24.6225 57.5864C24.8932 57.1716 25.0288 56.2798 25.0294 54.9113C25.0682 54.2607 24.9353 53.6113 24.6439 53.0283C24.3214 52.5329 23.8996 52.1098 23.4052 51.7858C22.8781 51.436 22.3284 51.1216 21.7597 50.8445C21.1739 50.5594 20.5907 50.2878 20.0064 50.0303C19.422 49.7728 18.8591 49.4959 18.3178 49.1965C17.7921 48.9085 17.3043 48.5562 16.8656 48.1477C15.9562 47.3275 15.3849 46.1978 15.2631 44.9791C15.0548 43.2462 14.962 41.5013 14.9851 39.756C14.9625 38.4692 15.0839 37.1839 15.3472 35.9242C15.5377 34.9855 15.9732 34.1139 16.6093 33.3979C17.276 32.7172 18.1188 32.2353 19.0436 32.0063C20.3303 31.6924 21.6526 31.549 22.9767 31.5797C24.2035 31.5565 25.429 31.6714 26.6301 31.9222C27.5221 32.1053 28.3535 32.5107 29.0471 33.1008C29.6957 33.6937 30.1629 34.4585 30.3944 35.3063C30.691 36.4229 30.8279 37.5759 30.8013 38.7309C30.8013 39.6168 30.7781 40.3162 30.7368 40.8289C30.7031 41.2955 30.6097 41.7559 30.4589 42.1988H24.9005C24.9265 42.0074 24.9409 41.8145 24.9435 41.6214V40.7858C24.9435 39.7872 24.8223 39.0951 24.5798 38.7095C24.3372 38.3239 23.803 38.1315 22.977 38.132C22.1508 38.132 21.6236 38.3245 21.3953 38.7095C21.167 39.0945 21.0535 39.7866 21.0547 40.7858C21.0547 41.7271 21.1718 42.3907 21.417 42.7763C21.7181 43.2162 22.1217 43.5761 22.593 43.8251C23.1678 44.169 23.7595 44.4837 24.3659 44.7682C24.9217 45.0247 25.4343 45.259 25.904 45.4713C26.3752 45.6867 26.8234 45.8947 27.2513 46.0936C27.6959 46.3034 28.1238 46.5468 28.5313 46.8217C28.9707 47.1469 29.3788 47.5125 29.7503 47.9136C30.1361 48.348 30.4272 48.8579 30.6053 49.411C30.8464 50.1489 31.0116 50.9095 31.0983 51.6809C31.2226 52.7965 31.2789 53.9186 31.267 55.041C31.2955 56.6632 31.1597 58.2841 30.8616 59.8789M30.8616 97.4332C30.6639 98.5568 30.1944 99.6149 29.4941 100.515C28.8105 101.314 27.902 101.889 26.8872 102.163C25.5571 102.521 24.1825 102.687 22.8053 102.656C20.127 102.656 18.1611 102.15 16.9075 101.136C15.6538 100.122 15.0265 98.346 15.0253 95.8075C15.0253 94.979 15.0468 94.144 15.0897 93.3026C15.1099 92.6168 15.203 91.9351 15.3677 91.2691H20.968C20.9092 91.4487 20.8801 91.6367 20.8819 91.8257V92.4676C20.8819 93.7247 21.0103 94.5884 21.2673 95.0587C21.5243 95.529 22.0793 95.7645 22.9325 95.7653C23.7877 95.7653 24.3507 95.5579 24.6213 95.1431C24.892 94.7282 25.0276 93.8364 25.0282 92.4676C25.067 91.8171 24.9341 91.1678 24.6427 90.585C24.3203 90.0895 23.8985 89.6664 23.404 89.3425C22.8769 88.9927 22.3272 88.6782 21.7585 88.4011C21.1727 88.1161 20.5895 87.8445 20.0052 87.587C19.4209 87.3294 18.8579 87.0526 18.3166 86.7532C17.7909 86.4652 17.3031 86.1128 16.8644 85.7043C15.9551 84.8841 15.3837 83.7545 15.2619 82.5358C15.0537 80.8028 14.9608 79.0579 14.984 77.3126C14.9614 76.0259 15.0829 74.7406 15.346 73.4808C15.5362 72.5425 15.9717 71.6714 16.6081 70.9563C17.2743 70.2749 18.1173 69.7929 19.0424 69.5647C20.3294 69.2493 21.6523 69.1053 22.977 69.1366C24.2037 69.1143 25.4291 69.2292 26.6304 69.4791C27.522 69.6616 28.3532 70.066 29.0471 70.6551C29.6956 71.2481 30.1627 72.0129 30.3944 72.8606C30.6908 73.9773 30.8278 75.1304 30.8013 76.2855C30.8013 77.1711 30.7781 77.8705 30.7368 78.3835C30.7031 78.8501 30.6097 79.3105 30.4589 79.7534H24.9005C24.9265 79.562 24.9409 79.3691 24.9435 79.176V78.3404C24.9435 77.3417 24.8223 76.6496 24.5798 76.2641C24.3372 75.8785 23.803 75.6861 22.977 75.6866C22.1508 75.6866 21.6236 75.8791 21.3953 76.2641C21.167 76.6491 21.0535 77.3412 21.0547 78.3404C21.0547 79.2817 21.1718 79.9453 21.417 80.3306C21.7175 80.7711 22.1212 81.1313 22.593 81.3797C23.1677 81.7234 23.7596 82.0374 24.3665 82.3204C24.9223 82.5769 25.4349 82.8124 25.9045 83.0268C26.3758 83.2404 26.824 83.4484 27.2519 83.6473C27.6964 83.8571 28.1243 84.1005 28.5319 84.3754C28.9705 84.7016 29.3785 85.0671 29.7509 85.4673C30.1367 85.9016 30.4278 86.4114 30.6059 86.9644C30.847 87.7024 31.0122 88.4631 31.0989 89.2346C31.2232 90.3502 31.2795 91.4723 31.2676 92.5947C31.2963 94.2169 31.1604 95.8379 30.8622 97.4326M15.0071 18.8716C15.0284 18.28 15.0631 17.7959 15.1111 17.4194C15.1437 17.1175 15.2061 16.8195 15.2974 16.5299C15.3688 16.3223 15.4606 16.1223 15.5715 15.9328C15.7782 15.573 16.1111 15.3027 16.5056 15.1743C17.6328 14.9001 18.8087 14.8946 19.9384 15.1582C20.3182 15.2624 20.656 15.4824 20.905 15.7875C21.1467 16.1183 21.302 16.5042 21.3569 16.9102C21.4371 17.4581 21.4742 18.0115 21.468 18.5652C21.468 18.7158 21.4662 18.8825 21.4609 19.0653C21.4557 19.2481 21.4466 19.4421 21.4357 19.6463H19.0673C19.0673 19.324 19.0656 19.0547 19.0603 18.8394C19.055 18.6241 19.0459 18.4468 19.0369 18.3068C19.0278 18.1667 19.0117 18.056 18.9956 17.9751C18.9795 17.8943 18.9663 17.8286 18.9543 17.7745C18.9133 17.5694 18.6874 17.4677 18.2785 17.4677C18.1274 17.4576 17.9759 17.4822 17.8357 17.5395C17.79 17.5634 17.7498 17.5966 17.7178 17.637C17.6857 17.6773 17.6624 17.724 17.6494 17.7739C17.614 17.8699 17.5899 17.9698 17.5776 18.0715C17.5616 18.1844 17.5455 18.3565 17.5293 18.5877C17.5131 18.819 17.5024 19.1394 17.4971 19.549C17.4914 19.9576 17.4884 20.4901 17.488 21.1466C17.488 21.8261 17.491 22.3699 17.4971 22.7781C17.5031 23.1864 17.5139 23.5086 17.5293 23.745C17.5453 23.9817 17.5614 24.1592 17.5776 24.2776C17.5894 24.3823 17.6135 24.4853 17.6494 24.5843C17.6625 24.6342 17.6867 24.6804 17.7203 24.7195C17.7538 24.7586 17.7958 24.7896 17.843 24.8102C18.0097 24.8634 18.1848 24.8852 18.3594 24.8747C18.6816 24.8747 18.8737 24.7833 18.9382 24.6004C18.9815 24.4907 19.0145 24.3773 19.0369 24.2615C19.0565 24.1443 19.0726 24.0122 19.0834 23.8651C19.0943 23.718 19.1031 23.5531 19.1086 23.365C19.1142 23.1769 19.1174 22.9598 19.1174 22.7122H21.4533C21.4855 23.0995 21.5016 23.4654 21.5016 23.8097C21.5072 24.3739 21.4725 24.9377 21.3977 25.4969C21.3471 25.922 21.1947 26.3286 20.9533 26.682C20.7124 27.0068 20.3775 27.2497 19.9941 27.3778C19.466 27.5456 18.9132 27.622 18.3594 27.6037C17.7367 27.6271 17.1141 27.5533 16.5141 27.3849C16.1099 27.2569 15.772 26.9757 15.5727 26.6015C15.4555 26.4096 15.3633 26.2036 15.2986 25.9883C15.208 25.6771 15.1457 25.3584 15.1123 25.0361C15.0637 24.6379 15.029 24.1322 15.0083 23.5191C14.9876 22.906 14.9768 22.1254 14.9758 21.1773C14.9758 20.2308 14.9866 19.4616 15.0083 18.8696M22.2934 18.9343C22.315 18.3316 22.3497 17.842 22.3973 17.4657C22.4298 17.1641 22.4917 16.8665 22.5822 16.5771C22.656 16.3652 22.7477 16.1601 22.8563 15.9639C22.9571 15.7887 23.0848 15.6305 23.2347 15.4951C23.3942 15.3579 23.5777 15.2515 23.776 15.1813C24.0224 15.0928 24.279 15.0355 24.5396 15.0108C24.8802 14.9764 25.2224 14.9603 25.5648 14.9625C26.1613 14.9378 26.7576 15.0141 27.3286 15.1884C27.7194 15.3288 28.0478 15.6032 28.2554 15.963C28.3642 16.1592 28.456 16.3643 28.5298 16.5762C28.6204 16.8659 28.6822 17.1638 28.7144 17.4657C28.7627 17.8421 28.797 18.3317 28.8201 18.9343C28.8432 19.537 28.8523 20.3166 28.8523 21.2743C28.8523 22.232 28.84 23.0152 28.8201 23.6231C28.8002 24.231 28.7615 24.7241 28.7144 25.1006C28.6817 25.4046 28.62 25.7048 28.5298 25.9971C28.4592 26.2074 28.3672 26.4099 28.2554 26.6015C28.1585 26.7815 28.0304 26.943 27.8772 27.0784C27.7162 27.2115 27.5329 27.3152 27.336 27.3849C27.0919 27.473 26.8377 27.5303 26.5794 27.5554C26.2423 27.5899 25.9036 27.606 25.5648 27.6037C24.9628 27.6281 24.3609 27.5542 23.7828 27.3849C23.3878 27.2471 23.0577 26.968 22.856 26.6015C22.7446 26.4105 22.6529 26.2086 22.5822 25.9991C22.4921 25.7069 22.4302 25.4067 22.3973 25.1026C22.349 24.7261 22.315 24.2348 22.2934 23.6251C22.2717 23.0155 22.2594 22.2356 22.2594 21.2764C22.2594 20.3172 22.2702 19.5387 22.2934 18.9364M36.814 15.1743H39.3432V24.6831H41.955V27.396H36.8128L36.814 15.1743ZM42.7438 15.1743H45.3395V27.3943H42.7426L42.7438 15.1743ZM46.1303 15.1743H52.496V17.7583H50.5778V27.3972H48.0465V17.7583H46.1303V15.1743ZM52.8328 32.9939C53.2546 32.6293 53.7402 32.346 54.2651 32.1583C54.9211 31.9252 55.6033 31.7741 56.2964 31.7083C57.1976 31.6181 58.103 31.5756 59.0087 31.5811C61.0611 31.5811 62.6213 31.7808 63.6892 32.18C64.7254 32.553 65.596 33.281 66.1467 34.2349C66.4345 34.7556 66.678 35.2996 66.8745 35.8612C67.1156 36.6284 67.2801 37.4176 67.3657 38.2173C67.495 39.216 67.5871 40.5141 67.6419 42.1118C67.7005 43.7112 67.7292 45.7804 67.7281 48.3193C67.7269 50.8583 67.6982 52.9347 67.6419 54.5486C67.5863 56.1623 67.4942 57.4682 67.3657 58.4665C67.2783 59.2723 67.1138 60.0678 66.8745 60.8422C66.6866 61.4004 66.4427 61.938 66.1467 62.4471C65.8911 62.9257 65.551 63.354 65.1429 63.7113C64.7167 64.0628 64.2326 64.3376 63.7124 64.5235C63.0636 64.7559 62.3886 64.907 61.7028 64.9734C60.8076 65.0658 59.908 65.109 59.0081 65.1027C56.9285 65.1027 55.3545 64.9096 54.2862 64.5235C53.2395 64.1573 52.3645 63.418 51.8284 62.4471C51.5327 61.9379 51.2888 61.4003 51.1006 60.8422C50.8616 60.0678 50.6971 59.2722 50.6094 58.4665C50.4823 57.4677 50.3903 56.1617 50.3335 54.5486C50.2766 52.9354 50.2479 50.859 50.2474 48.3193C50.2474 45.7802 50.2761 43.7111 50.3335 42.1118C50.3909 40.5126 50.4828 39.2144 50.6094 38.2173C50.6953 37.4177 50.8598 36.6285 51.1006 35.8612C51.2974 35.2997 51.5409 34.7557 51.8284 34.2349C52.0965 33.7715 52.4351 33.3528 52.8322 32.9939M53.2859 15.1743H55.8799V27.3943H53.2859V15.1743ZM56.8461 18.9364C56.8674 18.3336 56.9027 17.8441 56.9519 17.4677C56.984 17.1659 57.0458 16.8679 57.1364 16.5782C57.2102 16.3664 57.3019 16.1613 57.4106 15.965C57.5109 15.7896 57.6386 15.6313 57.789 15.4963C57.9482 15.3588 58.1318 15.2523 58.3303 15.1825C58.5767 15.0939 58.8332 15.0367 59.0939 15.012C59.434 14.9776 59.7757 14.9615 60.1176 14.9636C60.7141 14.9387 61.3105 15.015 61.8814 15.1895C62.2731 15.3294 62.6023 15.6039 62.8102 15.9642C62.9176 16.1608 63.0087 16.3659 63.0826 16.5774C63.1739 16.867 63.2363 17.1649 63.2689 17.4668C63.3175 17.8432 63.3522 18.3328 63.3729 18.9355C63.3936 19.5382 63.405 20.3182 63.4072 21.2755C63.4072 22.2347 63.3957 23.0176 63.3729 23.6243C63.3515 24.2339 63.3175 24.7253 63.2689 25.1017C63.2359 25.4059 63.1735 25.7061 63.0826 25.9982C63.0118 26.2081 62.9206 26.4106 62.8102 26.6026C62.7131 26.7827 62.585 26.9441 62.4318 27.0796C62.2704 27.2131 62.0869 27.3174 61.8896 27.3878C61.6455 27.4758 61.3913 27.5331 61.1331 27.5583C60.7954 27.5929 60.4561 27.609 60.1167 27.6067C59.5148 27.6308 58.9129 27.5569 58.3347 27.3878C57.9402 27.2499 57.6107 26.9708 57.4097 26.6044C57.2981 26.4127 57.2062 26.2102 57.1355 26C57.0454 25.7078 56.9836 25.4076 56.951 25.1035C56.9024 24.727 56.8667 24.2357 56.8453 23.626C56.8239 23.0163 56.8128 22.2364 56.8128 21.2772C56.8128 20.318 56.8236 19.5396 56.8453 18.9373M64.2914 15.1743H66.7726L68.4799 19.4189H68.5769V15.1743H70.8981V27.396H69.5754L66.6932 20.8404H66.5966V27.396H64.2914V15.1743ZM74.816 15.1743H81.1816V17.7583H79.2637V27.3972H76.7325V17.7583H74.816V15.1743ZM81.6154 18.9364C81.6371 18.3337 81.674 17.8442 81.7212 17.4677C81.7544 17.166 81.8163 16.8682 81.906 16.5782C81.9798 16.3664 82.0715 16.1613 82.1801 15.965C82.2817 15.7898 82.4102 15.6316 82.5609 15.4963C82.7198 15.3592 82.9027 15.2527 83.1004 15.1825C83.3475 15.0941 83.6046 15.0369 83.8658 15.012C84.2053 14.9776 84.5465 14.9615 84.8877 14.9636C85.4848 14.9386 86.0818 15.0149 86.6533 15.1895C87.0441 15.33 87.3725 15.6044 87.5801 15.9642C87.6889 16.1603 87.7808 16.3655 87.8545 16.5774C87.9451 16.8671 88.0069 17.165 88.0391 17.4668C88.0894 17.8433 88.1234 18.3329 88.1448 18.9355C88.1662 19.5381 88.1773 20.3178 88.1773 21.2755C88.1773 22.2332 88.1665 23.0163 88.1448 23.6243C88.1231 24.2322 88.0894 24.7253 88.0391 25.1017C88.0065 25.4058 87.9447 25.706 87.8545 25.9982C87.7839 26.2085 87.6919 26.4111 87.5801 26.6026C87.4838 26.7831 87.3557 26.9447 87.202 27.0796C87.041 27.2119 86.8585 27.3156 86.6624 27.386C86.4176 27.474 86.1629 27.5313 85.9041 27.5566C85.5664 27.5912 85.2272 27.6074 84.8877 27.6049C84.2864 27.6292 83.6851 27.5553 83.1075 27.386C82.7128 27.2477 82.3829 26.9689 82.1807 26.6026C82.0691 26.411 81.9772 26.2085 81.9066 25.9982C81.8173 25.7058 81.7554 25.4056 81.7217 25.1017C81.6752 24.7253 81.6377 24.2339 81.616 23.6243C81.5943 23.0146 81.5867 22.2347 81.5867 21.2755C81.5867 20.3163 81.5976 19.5379 81.616 18.9355M179.822 -0.00146484H4.17764C3.62848 -0.00119573 3.08475 0.107304 2.57753 0.317831C2.0703 0.528358 1.60951 0.836788 1.2215 1.2255C0.833478 1.61421 0.525836 2.07558 0.316143 2.58326C0.106449 3.09093 -0.00118528 3.63496 -0.000608042 4.18425V112.757C-0.000877354 113.306 0.106995 113.85 0.316844 114.358C0.526694 114.865 0.834412 115.326 1.22243 115.715C1.61045 116.103 2.07117 116.411 2.57827 116.622C3.08538 116.832 3.62895 116.94 4.17794 116.941H139.49L162.751 132.874C162.876 132.952 163.019 132.995 163.165 132.999C163.312 133.002 163.457 132.965 163.584 132.893C163.712 132.82 163.817 132.714 163.889 132.587C163.961 132.459 163.997 132.314 163.994 132.167L163.977 116.941H179.824C180.932 116.94 181.995 116.499 182.778 115.714C183.561 114.93 184.001 113.866 184 112.757V4.18425C184.001 3.07553 183.561 2.01195 182.778 1.22744C181.995 0.442928 180.932 0.00173209 179.824 0.000877662" fill="#E7E9E2"/>
<path d="M84.1394 23.7629C84.1554 23.9996 84.1715 24.1772 84.1877 24.2955C84.1993 24.3951 84.224 24.4928 84.2612 24.5859C84.2732 24.635 84.296 24.6807 84.3279 24.7199C84.3598 24.759 84.4001 24.7905 84.4458 24.8121C84.5875 24.8633 84.7382 24.8852 84.8886 24.8765C85.0367 24.8858 85.1851 24.8639 85.3242 24.8121C85.4149 24.7637 85.484 24.683 85.5178 24.5859C85.5395 24.5105 85.5609 24.4137 85.5822 24.2955C85.6094 24.1192 85.6257 23.9413 85.6309 23.7629C85.6414 23.5262 85.6487 23.2063 85.654 22.802C85.6593 22.3977 85.6631 21.8694 85.6631 21.2132C85.6631 20.5355 85.6613 19.9903 85.654 19.5816C85.6467 19.1729 85.6414 18.8492 85.6309 18.606C85.6259 18.4247 85.6096 18.2439 85.5822 18.0646C85.5609 17.9462 85.5395 17.8493 85.5178 17.7739C85.4825 17.6756 85.4141 17.5927 85.3242 17.5396C85.1867 17.4816 85.0374 17.457 84.8886 17.4678C84.7375 17.4578 84.586 17.4823 84.4458 17.5396C84.4003 17.5636 84.3604 17.5968 84.3286 17.6372C84.2969 17.6775 84.2739 17.7241 84.2612 17.7739C84.2241 17.8672 84.1994 17.9649 84.1877 18.0646C84.1716 18.1818 84.1555 18.364 84.1394 18.606C84.1233 18.848 84.1124 19.1726 84.1069 19.5816C84.1013 19.9906 84.0999 20.5355 84.0999 21.2132C84.0999 21.8694 84.1022 22.399 84.1069 22.802C84.1124 23.2071 84.1233 23.5262 84.1394 23.7629Z" fill="#E7E9E2"/>
<path d="M111.409 76.37H109.7V83.4337H111.581C111.856 83.4526 112.13 83.3869 112.366 83.2455C112.603 83.1041 112.79 82.8937 112.904 82.6426C113.162 82.1153 113.29 81.095 113.289 79.5819C113.289 78.2981 113.14 77.4416 112.841 77.0125C112.676 76.7931 112.458 76.6192 112.208 76.5069C111.957 76.3946 111.682 76.3478 111.409 76.3706" fill="#E7E9E2"/>
</g>
<defs>
<clipPath id="clip0_240_1079">
<rect width="184" height="133" fill="white"/>
</clipPath>
</defs>
</svg>
