<svg xmlns="http://www.w3.org/2000/svg" width="144.396" height="18.4" viewBox="0 0 144.396 18.4">
  <g id="Group_7002" data-name="Group 7002" transform="translate(-796.302 -3098.84)">
    <path id="Path_17133" data-name="Path 17133" d="M1.6,0H5.98c3.3,0,6.52-2.1,6.52-7s-3.22-7-6.52-7H1.6ZM4.2-2.4v-9.2h.96c2.24,0,4.7.88,4.7,4.6S7.4-2.4,5.16-2.4ZM14.82,0H17.3V-3.58c0-3.26,1.26-4.44,2.7-4.44a1.92,1.92,0,0,1,1.04.28l.46-2.3a4.1,4.1,0,0,0-1.22-.2,3.514,3.514,0,0,0-2.98,1.8v-1.64H14.82ZM25.16.16a3.757,3.757,0,0,0,3.1-1.44L28.52,0h2.04V-6.02c0-2.82-1.58-4.22-4.24-4.22a3.643,3.643,0,0,0-3.84,2.8l2.1.48a1.691,1.691,0,0,1,1.74-1.16c.92,0,1.76.42,1.76,1.48v.44H26.32c-2.58,0-4.22,1.3-4.22,3.3A2.865,2.865,0,0,0,25.16.16Zm.66-2.12a1.009,1.009,0,0,1-1.12-.98c0-.9.66-1.3,1.72-1.3h1.66v.2A2.155,2.155,0,0,1,25.82-1.96Zm11.06,6.2c2.24,0,4.58-1,4.58-3.48,0-1.94-1.42-2.96-3.54-2.96H35.86c-.6,0-.94-.26-.94-.74a.881.881,0,0,1,.48-.76,4.857,4.857,0,0,0,1.46.22c2.04,0,3.7-1.24,3.7-3.36a3.218,3.218,0,0,0-.4-1.6l1.44-.72-.98-1.64-1.9,1a4.112,4.112,0,0,0-1.86-.44,3.424,3.424,0,0,0-3.7,3.4,3.22,3.22,0,0,0,.7,2.08,2.4,2.4,0,0,0-1.24,2.12,2.4,2.4,0,0,0,.52,1.56,2.663,2.663,0,0,0-.82,2C32.32,3.12,34.3,4.24,36.88,4.24Zm-.02-9.72a1.307,1.307,0,0,1-1.38-1.36,1.328,1.328,0,0,1,1.38-1.4,1.328,1.328,0,0,1,1.38,1.4A1.307,1.307,0,0,1,36.86-5.48Zm.02,7.64c-1.3,0-2.26-.48-2.26-1.44a1.611,1.611,0,0,1,.22-.92A7.046,7.046,0,0,0,36-.12h1.36c.94,0,1.62.2,1.62,1.04C38.98,1.82,38.06,2.16,36.88,2.16Zm13.9-2a3.757,3.757,0,0,0,3.1-1.44L54.14,0h2.04V-6.02c0-2.82-1.58-4.22-4.24-4.22a3.643,3.643,0,0,0-3.84,2.8l2.1.48a1.691,1.691,0,0,1,1.74-1.16c.92,0,1.76.42,1.76,1.48v.44H51.94c-2.58,0-4.22,1.3-4.22,3.3A2.865,2.865,0,0,0,50.78.16Zm.66-2.12a1.009,1.009,0,0,1-1.12-.98c0-.9.66-1.3,1.72-1.3H53.7v.2A2.155,2.155,0,0,1,51.44-1.96ZM63.7.16c3.04,0,4.6-2.1,4.6-5.2s-1.56-5.2-4.6-5.2a3.3,3.3,0,0,0-2.44,1.08v-5H58.78V0h2.48V-1.04A2.861,2.861,0,0,0,63.7.16Zm-.34-2.12c-1.3,0-2.32-1.08-2.32-3.08s1.02-3.08,2.32-3.08S65.7-7.04,65.7-5.04,64.66-1.96,63.36-1.96ZM75.1.16a4.89,4.89,0,0,0,5.12-5.2,4.89,4.89,0,0,0-5.12-5.2,4.89,4.89,0,0,0-5.12,5.2A4.89,4.89,0,0,0,75.1.16Zm0-2.12c-1.6,0-2.52-1.42-2.52-3.08s.92-3.08,2.52-3.08,2.52,1.42,2.52,3.08S76.7-1.96,75.1-1.96ZM84.54,0h2.24L90.2-10.08H87.7L85.66-3.06l-2.04-7.02h-2.5ZM100.6-5.26c0-2.2-1.34-4.98-4.7-4.98-3.46,0-4.84,2.82-4.84,5.2S92.44.16,95.9.16a4.56,4.56,0,0,0,4.58-2.94l-2-.74a2.613,2.613,0,0,1-2.44,1.56,2.33,2.33,0,0,1-2.4-2.28h6.96ZM93.7-6.2a2.241,2.241,0,0,1,2.2-1.92A2.158,2.158,0,0,1,98.06-6.2Z" transform="translate(818 3113)" fill="#e0e0e0"/>
    <path id="Polygon_78" data-name="Polygon 78" d="M7.2,0l7.2,11.242H0Z" transform="translate(796.302 3114.203) rotate(-90)" fill="#e0e0e0"/>
    <path id="Polygon_79" data-name="Polygon 79" d="M7.2,0l7.2,11.242H0Z" transform="translate(940.698 3099.799) rotate(90)" fill="#e0e0e0"/>
  </g>
</svg>
