<svg xmlns="http://www.w3.org/2000/svg" width="31.805" height="31.795" viewBox="0 0 31.805 31.795">
  <g id="Group_6521" data-name="Group 6521" transform="translate(0)">
    <path id="Path_2536" data-name="Path 2536" d="M27.517,0H4.288A4.282,4.282,0,0,0,0,4.288V27.517a4.28,4.28,0,0,0,4.288,4.278H15.742l.019-11.366H12.806a.708.708,0,0,1-.7-.69l-.01-3.666a.7.7,0,0,1,.7-.7h2.946V11.833c0-4.1,2.509-6.34,6.174-6.34h3a.7.7,0,0,1,.7.7V9.286a.7.7,0,0,1-.7.7H23.074c-1.993,0-2.382.943-2.382,2.334v3.063h4.376a.693.693,0,0,1,.69.778l-.438,3.666a.694.694,0,0,1-.69.613H20.7V31.795h6.816a4.289,4.289,0,0,0,4.288-4.288V4.288A4.3,4.3,0,0,0,27.517,0Zm0,0" transform="translate(0)" fill="#fff"/>
  </g>
</svg>
