<svg xmlns="http://www.w3.org/2000/svg" width="44.704" height="44.689" viewBox="0 0 44.704 44.689">
  <g id="Group_6600" data-name="Group 6600" opacity="0.416">
    <path id="Path_2536" data-name="Path 2536" d="M38.677,0H6.027A6.019,6.019,0,0,0,0,6.027V38.676a6.016,6.016,0,0,0,6.027,6.013h16.1l.027-15.976H18a1,1,0,0,1-.984-.97L17,22.59a.98.98,0,0,1,.984-.984h4.141V16.632c0-5.767,3.526-8.91,8.678-8.91h4.223a.98.98,0,0,1,.984.984v4.346a.98.98,0,0,1-.984.984h-2.6c-2.8,0-3.348,1.326-3.348,3.28v4.3h6.15a.974.974,0,0,1,.97,1.093l-.615,5.152a.976.976,0,0,1-.97.861H29.1V44.689h9.58A6.028,6.028,0,0,0,44.7,38.662V6.027A6.037,6.037,0,0,0,38.677,0Zm0,0" fill="#212322"/>
  </g>
</svg>
