<svg id="Group_7762" data-name="Group 7762" xmlns="http://www.w3.org/2000/svg" xmlns:xlink="http://www.w3.org/1999/xlink" width="88" height="88" viewBox="0 0 88 88">
  <defs>
    <clipPath id="clip-path">
      <rect id="Rectangle_3152" data-name="Rectangle 3152" width="88" height="88" fill="#d6001c"/>
    </clipPath>
  </defs>
  <g id="Group_7440" data-name="Group 7440" transform="translate(0 0)" clip-path="url(#clip-path)">
    <path id="Path_17205" data-name="Path 17205" d="M44,5.5A38.5,38.5,0,1,1,5.5,44,38.55,38.55,0,0,1,44,5.5M44,0A44,44,0,1,0,88,44,44,44,0,0,0,44,0" transform="translate(0 0.003)" fill="#d6001c"/>
    <path id="Path_17206" data-name="Path 17206" d="M25.309,6.205C31.632,6.205,40.821,20.93,40.821,44s-9.19,37.795-15.513,37.795S9.8,67.07,9.8,44,18.986,6.205,25.309,6.205m0-6.205C13.314,0,3.591,19.7,3.591,44s9.723,44,21.718,44S47.026,68.3,47.026,44,37.3,0,25.309,0" transform="translate(18.691 0.003)" fill="#d6001c"/>
    <rect id="Rectangle_3150" data-name="Rectangle 3150" width="82.409" height="5.504" transform="translate(3.016 41.251)" fill="#d6001c"/>
    <rect id="Rectangle_3151" data-name="Rectangle 3151" width="5.504" height="81.565" transform="translate(41.245 3.369)" fill="#d6001c"/>
    <path id="Path_17207" data-name="Path 17207" d="M65.454,3.18C58.927,6.034,49.023,8.411,36.328,8.411c-13.453,0-23.778-2.662-30.25-5.746l-4.6,4.666c8.042,4.418,20.644,7.285,34.854,7.285,13.992,0,26.44-2.774,34.494-7.086Z" transform="translate(7.672 13.874)" fill="#d6001c"/>
    <path id="Path_17208" data-name="Path 17208" d="M6.248,20.636c6.534-2.681,16.158-4.84,28.289-4.84,14.346,0,25.23,3.009,31.559,6.348l3.2-5.324C61.25,12.427,48.691,9.591,34.537,9.591c-13.012,0-24.665,2.4-32.719,6.2Z" transform="translate(9.463 49.924)" fill="#d6001c"/>
  </g>
</svg>
