<svg xmlns="http://www.w3.org/2000/svg" xmlns:xlink="http://www.w3.org/1999/xlink" width="54.537" height="70.404" viewBox="0 0 54.537 70.404">
  <defs>
    <clipPath id="clip-path">
      <rect id="Rectangle_3158" data-name="Rectangle 3158" width="54.537" height="70.404" fill="#fff"/>
    </clipPath>
  </defs>
  <g id="Group_7761" data-name="Group 7761" transform="translate(0)">
    <g id="Group_7445" data-name="Group 7445" transform="translate(0 0.001)" clip-path="url(#clip-path)">
      <path id="Path_17210" data-name="Path 17210" d="M108.091,13.943a.04.04,0,0,0-.041-.017c-1.019.117-2.217.246-2.217.246a5.752,5.752,0,0,0-4.423-.254,5.955,5.955,0,0,0-3.218,2.6l-.536-.175.379-3.05a5.342,5.342,0,0,0-2.5-5.056L82.249,0a10.2,10.2,0,0,0,5.584,12.013A52.194,52.194,0,0,1,92.6,14.369a.655.655,0,0,1,.267.4s-7-2.259-8.9-2.9c-6.3-2.107-17.289-5.765-22.5-7.452,0,0,1.815,13.674,18.482,19.295C85.213,25.53,89.491,27,89.491,27a2.431,2.431,0,0,1,1.356.983,2.109,2.109,0,0,1,.038,2C88.43,34.5,79.9,50.227,79.437,51.077a9.386,9.386,0,0,0,3.516-2.385c1.15-1.284,2.035-2.344,4.09-4.666,2.512-2.841,5.208-5.884,5.208-5.884l.69,6.656a5.778,5.778,0,0,0,1.6-3.438c.21-1.741.843-6.761.843-6.761s4.562-5.2,8.435-9.589a10.058,10.058,0,0,0,2.649-8.886s1.3-1.7,1.618-2.131a.043.043,0,0,0,0-.05m-4.243,2.84a.948.948,0,0,1-1.3-.221.9.9,0,0,1,.227-1.267.948.948,0,0,1,1.3.221.893.893,0,0,1-.227,1.267" transform="translate(-53.562)" fill="#fff"/>
      <path id="Path_17211" data-name="Path 17211" d="M2.27,244.784v5.051H3.288v-5.051h2.27v12.242H3.288v-5.2H2.27v5.2H0V244.784Z" transform="translate(0 -214.153)" fill="#fff"/>
      <path id="Path_17212" data-name="Path 17212" d="M49.523,249.368c0-4.209,1.175-5.813,3.207-5.813s3.207,1.607,3.207,5.813v.917c0,4.209-1.175,5.813-3.207,5.813s-3.207-1.607-3.207-5.813Zm2.581,4.039c0,.5.251.779.626.779s.626-.275.626-.779V246.17c0-.5-.251-.779-.626-.779s-.626.275-.626.779Z" transform="translate(-43.155 -213.077)" fill="#fff"/>
      <path id="Path_17213" data-name="Path 17213" d="M108.029,244.784c1.908,0,3.552,1.224,3.552,3.826v.308c0,2.6-1.644,3.826-3.522,3.826v4.285h-2.347V244.787h2.317Zm.033,6.118h.157c.626,0,1.018-.353,1.018-1.224v-1.836c0-.871-.392-1.224-1.018-1.224h-.157Z" transform="translate(-92.119 -214.153)" fill="#fff"/>
      <path id="Path_17214" data-name="Path 17214" d="M160.086,244.784v1.99h-1.878v3.06h1.644v1.99h-1.644v3.214h1.878v1.99h-4.225V244.787h4.225Z" transform="translate(-135.82 -214.153)" fill="#fff"/>
      <path id="Path_17215" data-name="Path 17215" d="M0,354.147H4.225v1.99H2.347v3.06H3.911v1.99H2.347v5.2H0Z" transform="translate(0 -309.83)" fill="#fff"/>
      <path id="Path_17216" data-name="Path 17216" d="M34.916,358.757c0-4.209,1.175-5.813,3.207-5.813s3.207,1.607,3.207,5.813v.916c0,4.209-1.175,5.813-3.207,5.813s-3.207-1.607-3.207-5.813ZM37.5,362.8c0,.5.251.779.626.779s.626-.275.626-.779v-7.237c0-.5-.251-.779-.626-.779s-.626.275-.626.779Z" transform="translate(-30.426 -308.778)" fill="#fff"/>
      <path id="Path_17217" data-name="Path 17217" d="M92.947,354.147a3.389,3.389,0,0,1,3.475,3.718,3.978,3.978,0,0,1-1.329,3.214l1.175,5.155v.154H94l-.891-4.651h-.234l.11,4.651H90.637V354.147Zm.03,5.97h.077c.549,0,1.018-.412,1.018-1.224v-1.683c0-.812-.469-1.224-1.018-1.224h-.077Z" transform="translate(-78.982 -309.83)" fill="#fff"/>
      <path id="Path_17218" data-name="Path 17218" d="M4.225,463.513v9.715c0,1.529-.7,2.6-2.347,2.6A11.619,11.619,0,0,1,0,475.677l.157-1.912H1.316c.455,0,.643-.2.643-.628V465.5H0v-1.99H4.225Z" transform="translate(0 -405.508)" fill="#fff"/>
      <path id="Path_17219" data-name="Path 17219" d="M44.588,463.536v9.181c0,1.99-1.095,3.214-2.9,3.214s-2.9-1.224-2.9-3.214v-9.181h2.347v9.777c0,.5.171.779.549.779s.549-.275.549-.779v-9.777Z" transform="translate(-33.807 -405.531)" fill="#fff"/>
      <path id="Path_17220" data-name="Path 17220" d="M90.563,470.493a1.772,1.772,0,0,1,.094.687v1.133c0,.475.218.779.579.779s.6-.308.6-.841a4.9,4.9,0,0,0-1.346-2.769l-.455-.583a5.371,5.371,0,0,1-1.5-3.61,2.742,2.742,0,0,1,2.849-2.982c1.8,0,2.786,1.224,2.786,3.168a2.958,2.958,0,0,0,.094.887v.154H92.144a2,2,0,0,1-.094-.687V464.8c0-.491-.234-.733-.562-.733-.345,0-.609.246-.609.858a3.828,3.828,0,0,0,1.175,2.4l.469.583a5.8,5.8,0,0,1,1.661,3.885,2.738,2.738,0,0,1-2.786,3.06c-1.908,0-2.879-1.208-2.879-3.352a2.7,2.7,0,0,0-.094-.858V470.5h2.139Z" transform="translate(-77.054 -404.456)" fill="#fff"/>
      <path id="Path_17221" data-name="Path 17221" d="M141.262,463.536v1.99H139.7v10.252h-2.347V465.526h-1.567v-1.99Z" transform="translate(-118.325 -405.531)" fill="#fff"/>
      <rect id="Rectangle_3157" data-name="Rectangle 3157" width="2.347" height="12.242" transform="translate(23.62 58.005)" fill="#fff"/>
      <path id="Path_17222" data-name="Path 17222" d="M210.665,462.333c1.878,0,2.879,1.453,2.879,3.748a3.8,3.8,0,0,0,.077.841v.154h-2.347a2.47,2.47,0,0,1-.077-.687v-1.515c0-.429-.187-.7-.562-.7s-.609.275-.609.779v7.237c0,.5.234.779.609.779s.562-.275.562-.7v-1.515a2.437,2.437,0,0,1,.077-.687h2.347v.154a3.412,3.412,0,0,0-.077.92c0,2.294-1,3.748-2.879,3.748-2.035,0-3.224-1.607-3.224-5.813v-.916c0-4.213,1.189-5.816,3.224-5.816" transform="translate(-180.767 -404.478)" fill="#fff"/>
      <path id="Path_17223" data-name="Path 17223" d="M264.782,463.536v1.99H262.9v3.06h1.644v1.99H262.9v3.214h1.878v1.99h-4.225V463.539h4.225Z" transform="translate(-227.053 -405.531)" fill="#fff"/>
    </g>
  </g>
</svg>
