<svg xmlns="http://www.w3.org/2000/svg" width="44.69" height="44.689" viewBox="0 0 44.69 44.689">
  <path id="iconmonstr-instagram-11" d="M22.345,4.028c5.966,0,6.674.022,9.031.13,6.055.276,8.884,3.149,9.16,9.159.108,2.355.128,3.063.128,9.029s-.022,6.674-.128,9.029c-.277,6.005-3.1,8.884-9.16,9.159-2.357.108-3.061.13-9.031.13s-6.674-.022-9.029-.13c-6.07-.277-8.884-3.164-9.16-9.161-.108-2.355-.13-3.061-.13-9.029s.024-6.672.13-9.029c.277-6.009,3.1-8.884,9.16-9.159,2.357-.106,3.063-.128,9.029-.128Zm0-4.028c-6.069,0-6.828.026-9.212.134-8.115.372-12.625,4.875-13,13C.026,15.516,0,16.276,0,22.344s.026,6.83.134,9.213c.372,8.115,4.875,12.625,13,13,2.385.108,3.145.134,9.214.134s6.83-.026,9.214-.134c8.108-.372,12.629-4.875,13-13,.11-2.383.136-3.145.136-9.213s-.026-6.828-.134-9.211c-.365-8.107-4.873-12.625-13-13C29.175.026,28.414,0,22.345,0Zm0,10.871A11.475,11.475,0,1,0,33.819,22.344,11.474,11.474,0,0,0,22.345,10.871Zm0,18.922a7.448,7.448,0,1,1,7.448-7.448A7.447,7.447,0,0,1,22.345,29.792ZM34.274,7.737a2.681,2.681,0,1,0,2.68,2.681A2.682,2.682,0,0,0,34.274,7.737Z" fill="#212322" opacity="0.416"/>
</svg>
