<?xml version="1.0" encoding="utf-8"?>
<!-- Generator: Adobe Illustrator 26.0.1, SVG Export Plug-In . SVG Version: 6.00 Build 0)  -->
<svg version="1.1" id="Layer_1" xmlns="http://www.w3.org/2000/svg" xmlns:xlink="http://www.w3.org/1999/xlink" x="0px" y="0px"
	 viewBox="0 0 31.8 31.8" style="enable-background:new 0 0 31.8 31.8;" xml:space="preserve">
<style type="text/css">
	.st0{fill:#FFFFFF;}
	.st1{fill:#0A66C2;}
</style>
<path class="st0" d="M25.2,31.8H6.6c-3.6,0-6.6-2.9-6.6-6.6V6.6C0,2.9,2.9,0,6.6,0h18.7c3.6,0,6.6,2.9,6.6,6.6v18.7
	C31.8,28.9,28.9,31.8,25.2,31.8z"/>
<path id="Path_16710" class="st1" d="M29.4,0H2.3C1.1,0,0,1,0,2.3v27.2c0,1.3,1.1,2.3,2.3,2.3h27.1c1.3,0,2.3-1,2.4-2.3c0,0,0,0,0,0
	V2.3C31.8,1,30.7,0,29.4,0C29.4,0,29.4,0,29.4,0z M9.4,27.1H4.7V11.9h4.7V27.1z M7.1,9.8c-1.5,0-2.7-1.2-2.7-2.7s1.2-2.7,2.7-2.7
	s2.7,1.2,2.7,2.7c0,0,0,0,0,0C9.8,8.6,8.6,9.8,7.1,9.8C7.1,9.8,7.1,9.8,7.1,9.8z M27.1,27.1h-4.7v-7.4c0-1.8,0-4-2.5-4
	c-2.5,0-2.8,1.9-2.8,3.9v7.5h-4.7V11.9h4.5V14H17c0.9-1.6,2.6-2.5,4.5-2.5c4.8,0,5.7,3.1,5.7,7.2L27.1,27.1L27.1,27.1z"/>
</svg>
