<svg xmlns="http://www.w3.org/2000/svg" width="31.795" height="31.795" viewBox="0 0 31.795 31.795">
  <path id="Path_16710" data-name="Path 16710" d="M29.444,0H2.344A2.319,2.319,0,0,0,0,2.289V29.5a2.326,2.326,0,0,0,2.344,2.3h27.1A2.328,2.328,0,0,0,31.8,29.5V2.289A2.321,2.321,0,0,0,29.444,0ZM9.429,27.092H4.711V11.921H9.429ZM7.07,9.843A2.734,2.734,0,1,1,9.8,7.109,2.732,2.732,0,0,1,7.07,9.843ZM27.092,27.092H22.374V19.71c0-1.758-.031-4.023-2.453-4.023-2.453,0-2.828,1.914-2.828,3.9v7.507H12.382V11.921h4.523V14h.062a4.941,4.941,0,0,1,4.461-2.453c4.773,0,5.656,3.14,5.656,7.226v8.32Z" fill="#fff"/>
</svg>
