<svg xmlns="http://www.w3.org/2000/svg" width="44.69" height="44.689" viewBox="0 0 44.69 44.689">
  <path id="Path_16941" data-name="Path 16941" d="M41.385,0H3.294A3.26,3.26,0,0,0,0,3.217V41.461a3.269,3.269,0,0,0,3.294,3.228H41.385a3.272,3.272,0,0,0,3.305-3.228V3.217A3.262,3.262,0,0,0,41.385,0ZM13.253,38.079H6.621V16.756h6.632ZM9.937,13.835A3.843,3.843,0,1,1,13.78,9.992,3.84,3.84,0,0,1,9.937,13.835ZM38.08,38.079H31.448V27.7c0-2.471-.044-5.655-3.448-5.655-3.448,0-3.975,2.69-3.975,5.479V38.079H17.4V16.756h6.358v2.921h.088a6.945,6.945,0,0,1,6.27-3.448c6.709,0,7.95,4.414,7.95,10.157V38.079Z" fill="#212322" opacity="0.416"/>
</svg>
