<svg id="HFJ_Stacked_Red_Logo" data-name="HFJ Stacked Red Logo" xmlns="http://www.w3.org/2000/svg" width="124.576" height="165.251" viewBox="0 0 124.576 165.251">
  <g id="Group_6914" data-name="Group 6914">
    <g id="Group_6913" data-name="Group 6913">
      <path id="Path_17132" data-name="Path 17132" d="M120.057,32.726a.09.09,0,0,0-.092-.04c-2.327.274-5.065.577-5.065.577a12.828,12.828,0,0,0-10.1-.6,13.686,13.686,0,0,0-7.35,6.093l-1.224-.413.866-7.158a12.648,12.648,0,0,0-5.711-11.867L61.027,0c-.643,1.46-4.508,19.692,12.754,28.2,8.578,4.218,10.524,5.16,10.891,5.533a1.542,1.542,0,0,1,.61.942s-15.979-5.3-20.336-6.81C50.565,22.915,25.455,14.328,13.552,10.368c0,0,4.147,32.1,42.217,45.289,12.03,4.267,21.8,7.712,21.8,7.712a5.548,5.548,0,0,1,3.1,2.307,5.069,5.069,0,0,1,.088,4.684c-5.608,10.616-25.1,47.532-26.152,49.528a21.384,21.384,0,0,0,8.032-5.6c2.627-3.015,4.649-5.5,9.343-10.952,5.738-6.669,11.9-13.811,11.9-13.811l1.575,15.621a13.681,13.681,0,0,0,3.663-8.069c.48-4.086,1.925-15.87,1.925-15.87s10.42-12.216,19.269-22.507c8.542-9.883,6.3-20.019,6.051-20.858,0,0,2.959-3.987,3.7-5a.1.1,0,0,0,0-.117m-9.692,6.665a2.132,2.132,0,1,1,.518-2.972,2.127,2.127,0,0,1-.518,2.972" transform="translate(4.502)" fill="#fff"/>
      <path id="Path_17133" data-name="Path 17133" d="M5.185,53.97V65.825H7.51V53.97H12.7V82.7H7.51V70.5H5.185V82.7H0V53.97Z" transform="translate(0 17.928)" fill="#fff"/>
      <path id="Path_17134" data-name="Path 17134" d="M10.919,67.344c0-9.881,2.684-13.645,7.326-13.645s7.327,3.773,7.327,13.645v2.15c0,9.881-2.684,13.646-7.327,13.646s-7.326-3.773-7.326-13.646Zm5.9,9.48c0,1.183.574,1.829,1.429,1.829s1.431-.646,1.431-1.829V59.838c0-1.183-.573-1.829-1.431-1.829s-1.429.646-1.429,1.829Z" transform="translate(3.627 17.838)" fill="#fff"/>
      <path id="Path_17135" data-name="Path 17135" d="M28.6,53.97c4.359,0,8.114,2.874,8.114,8.982v.722c0,6.108-3.755,8.982-8.045,8.982V82.712H23.307V53.978H28.6Zm.076,14.36h.36c1.431,0,2.325-.83,2.325-2.874V61.145c0-2.044-.894-2.872-2.325-2.872h-.36Z" transform="translate(7.742 17.928)" fill="#fff"/>
      <path id="Path_17136" data-name="Path 17136" d="M44.016,53.97v4.671h-4.29v7.184H43.48V70.5H39.725V78.04h4.29v4.671H34.364V53.978h9.651Z" transform="translate(11.415 17.928)" fill="#fff"/>
      <path id="Path_17137" data-name="Path 17137" d="M0,78.082H9.651v4.671H5.361v7.184H8.932v4.671H5.361v12.208H0Z" transform="translate(0 25.937)" fill="#fff"/>
      <path id="Path_17138" data-name="Path 17138" d="M7.7,91.461c0-9.879,2.684-13.644,7.327-13.644s7.327,3.773,7.327,13.644v2.151c0,9.881-2.686,13.645-7.327,13.645S7.7,103.485,7.7,93.613Zm5.9,9.481c0,1.183.574,1.829,1.431,1.829s1.429-.646,1.429-1.829V83.956c0-1.183-.573-1.829-1.429-1.829s-1.431.646-1.431,1.829Z" transform="translate(2.557 25.849)" fill="#fff"/>
      <path id="Path_17139" data-name="Path 17139" d="M25.261,78.082c4.5,0,7.938,3.157,7.938,8.728a9.457,9.457,0,0,1-3.037,7.544l2.684,12.1v.361H27.661L25.627,95.9h-.536l.253,10.917H19.984V78.082ZM25.329,92.1h.177c1.254,0,2.325-.967,2.325-2.872v-3.95c0-1.905-1.071-2.874-2.325-2.874h-.177Z" transform="translate(6.638 25.937)" fill="#fff"/>
      <path id="Path_17140" data-name="Path 17140" d="M9.652,102.2V125c0,3.589-1.607,6.108-5.361,6.108A25.921,25.921,0,0,1,0,130.752l.36-4.487H3.005c1.04,0,1.468-.469,1.468-1.475V106.866H0V102.2H9.652Z" transform="translate(0 33.947)" fill="#fff"/>
      <path id="Path_17141" data-name="Path 17141" d="M21.784,102.2v21.551c0,4.672-2.5,7.545-6.614,7.545s-6.616-2.874-6.616-7.545V102.2h5.361v22.949c0,1.183.39,1.828,1.255,1.828s1.254-.645,1.254-1.828V102.2Z" transform="translate(2.841 33.949)" fill="#fff"/>
      <path id="Path_17142" data-name="Path 17142" d="M24.382,121.144a4.265,4.265,0,0,1,.214,1.613v2.659c0,1.114.5,1.828,1.323,1.828.857,0,1.361-.722,1.361-1.974,0-2.3-1.5-4.417-3.075-6.5l-1.04-1.368c-2.431-3.2-3.433-5.317-3.433-8.474,0-4.126,2.47-7,6.508-7,4.115,0,6.362,2.874,6.362,7.438a7.134,7.134,0,0,0,.214,2.082v.361H27.993a4.833,4.833,0,0,1-.214-1.613v-2.4c0-1.152-.536-1.721-1.286-1.721-.787,0-1.391.576-1.391,2.013,0,2.121,1.108,3.626,2.684,5.639l1.07,1.368c2.471,3.127,3.794,5.6,3.794,9.119,0,4.379-2.47,7.183-6.362,7.183-4.36,0-6.577-2.835-6.577-7.867a6.489,6.489,0,0,0-.214-2.013v-.361h4.886Z" transform="translate(6.476 33.858)" fill="#fff"/>
      <path id="Path_17143" data-name="Path 17143" d="M42.45,102.2v4.671H38.878v24.063H33.517V106.871H29.938V102.2Z" transform="translate(9.945 33.949)" fill="#fff"/>
      <rect id="Rectangle_2053" data-name="Rectangle 2053" width="5.361" height="28.734" transform="translate(53.955 136.149)" fill="#fff"/>
      <path id="Path_17144" data-name="Path 17144" d="M53.1,101.935c4.291,0,6.577,3.41,6.577,8.8a9.2,9.2,0,0,0,.176,1.974v.36H54.493a5.894,5.894,0,0,1-.176-1.612V107.9c0-1.006-.429-1.651-1.286-1.651s-1.392.645-1.392,1.828V125.06c0,1.183.537,1.829,1.392,1.829s1.286-.646,1.286-1.652v-3.557a5.848,5.848,0,0,1,.176-1.615h5.361v.362a8.219,8.219,0,0,0-.176,2.158c0,5.386-2.286,8.8-6.577,8.8-4.649,0-7.364-3.771-7.364-13.644v-2.151c0-9.887,2.715-13.652,7.364-13.652" transform="translate(15.193 33.86)" fill="#fff"/>
      <path id="Path_17145" data-name="Path 17145" d="M67.1,102.2v4.671h-4.29v7.184h3.755v4.672H62.809v7.544H67.1v4.672H57.448V102.208H67.1Z" transform="translate(19.083 33.949)" fill="#fff"/>
    </g>
  </g>
</svg>
