<svg xmlns="http://www.w3.org/2000/svg" xmlns:xlink="http://www.w3.org/1999/xlink" width="72.788" height="74.146" viewBox="0 0 72.788 74.146">
  <defs>
    <filter id="play" x="0" y="0" width="72.788" height="74.146" filterUnits="userSpaceOnUse">
      <feOffset dy="3" input="SourceAlpha"/>
      <feGaussianBlur stdDeviation="3" result="blur"/>
      <feFlood flood-opacity="0.475"/>
      <feComposite operator="in" in2="blur"/>
      <feComposite in="SourceGraphic"/>
    </filter>
  </defs>
  <g transform="matrix(1, 0, 0, 1, 0, 0)" filter="url(#play)">
    <path id="play-2" data-name="play" d="M2.485.024C2.262.087,2.3-.033,2.074,1.647c-.251,1.891-.349,3.085-.606,7.485-.246,4.2-.389,6.08-.8,10.371C.1,25.405.08,26.068.028,37.216c-.057,10.514-.051,10.759.246,12.5a7.648,7.648,0,0,0,.931,2.726c.217.377.469.84.566,1.029a2.359,2.359,0,0,0,.851,1.011,4.98,4.98,0,0,1,.526.406.868.868,0,0,0,.76.326c.663,0,1.491-.337,3.16-1.3,2.5-1.429,3.543-1.88,9.428-4.057,3.171-1.171,6.468-2.5,9.056-3.663,1.971-.886,2.011-.9,5.028-2.394,2.617-1.3,3.828-1.891,5.6-2.731,1.469-.7,8.051-4,9.142-4.583.583-.314,1.366-.754,1.743-.977a22.686,22.686,0,0,0,5.234-4.3,5.521,5.521,0,0,0,.36-.686,5.778,5.778,0,0,1,.326-.628,2.5,2.5,0,0,0,.229-.543,2.921,2.921,0,0,1,.194-.543,6.037,6.037,0,0,0,.286-.96,3.887,3.887,0,0,0,.131-1.286,1.941,1.941,0,0,0-.64-1.514c-.417-.451-.891-.789-3.834-2.748-2.6-1.737-4.234-2.748-6.457-4.005-1.491-.846-2.708-1.548-5.771-3.325-1.383-.8-3.183-1.834-4-2.3s-1.68-.954-1.914-1.086c-1.451-.828-3.354-1.846-6.285-3.371-1.674-.869-3.72-1.96-4.143-2.2-.726-.417-3.651-1.948-5.457-2.851A19.638,19.638,0,0,0,10.5,1.3C8.5.79,6.131.481,6.034.727a5.92,5.92,0,0,0,1.354,2.1,30.181,30.181,0,0,0,5.451,4.92c.7.48,6.12,3.548,8.342,4.725.314.166.754.394.971.514s1.211.634,2.2,1.143c4.851,2.5,10.468,5.5,13.542,7.245,2.451,1.388,5.463,3.114,6.285,3.611,1.126.674,3.474,2.16,3.514,2.228a3.209,3.209,0,0,1-.7.5c-1.9,1.183-3.023,1.811-5.84,3.28l-1.428.748c-.857.446-5.6,2.817-6.085,3.04-1.148.531-5.32,2.628-6.942,3.485-2.034,1.086-5.205,2.691-6.714,3.411-1.377.663-2.468,1.177-2.914,1.388-1.131.531-3.28,1.537-3.88,1.823-.371.177-.68.32-.691.32s-.874.4-1.926.891c-1.9.886-3.514,1.7-4.7,2.36a6.508,6.508,0,0,1-.64.337,40.175,40.175,0,0,1-.28-4.148c-.131-3.7-.223-5.291-.543-9.325-.194-2.445-.286-3.8-.429-6.2-.1-1.686-.154-3.857-.2-8.142-.051-4.863-.08-5.645-.286-9.142-.063-1.051-.16-2.623-.211-3.485-.063-1.063-.1-2.6-.1-4.743C3.177,1.875,3.165.39,3.16.321,3.148.093,2.788-.062,2.485.024Z" transform="translate(9 6.94) rotate(-1)" fill="#fff"/>
  </g>
</svg>
