<svg id="Layer_1" data-name="Layer 1" xmlns="http://www.w3.org/2000/svg" viewBox="0 0 993.74 364.35"><defs><style>.cls-1{fill:#fff;}</style></defs><path class="cls-1" d="M456.41,281.41,466.29,257l9.89,24.46,8-22.88h3.68l-11.7,32.12-9.89-24.59-9.88,24.59L444.7,258.53h3.69Z"/><path class="cls-1" d="M488.74,279.59a10,10,0,1,1,10,10A10,10,0,0,1,488.74,279.59Zm3.24,0a6.77,6.77,0,1,0,6.76-7.05A6.74,6.74,0,0,0,492,279.55Z"/><path class="cls-1" d="M519.32,272.1h.08c1.13-1.5,2.1-2.6,4.21-2.6a5.75,5.75,0,0,1,2.92.9l-1.54,3a3.21,3.21,0,0,0-2-.85c-3.56,0-3.72,4.58-3.72,7.05v9.52h-3.24V270h3.24Z"/><path class="cls-1" d="M535.92,277.08l6.93-7.05h4.33l-8.14,8.1,9.68,10.94h-4.29l-7.66-8.67-.85.85v7.82h-3.24V255.65h3.24Z"/><path class="cls-1" d="M559.46,262.86a2.31,2.31,0,0,1-4.62,0,2.31,2.31,0,0,1,4.62,0Zm-.7,26.21h-3.23V270h3.23Z"/><path class="cls-1" d="M571.81,272.34h.08a6.41,6.41,0,0,1,5.43-2.84c5.27,0,6.48,3.81,6.48,8.27v11.3h-3.24V278.34c0-3.08-.24-5.84-4-5.84-4.45,0-4.74,4.13-4.74,7.54v9h-3.24V270h3.24Z"/><path class="cls-1" d="M610.17,288.14c0,3,0,5.67-1.95,8.18a9.2,9.2,0,0,1-7.37,3.36c-5.3,0-9.23-3.36-9.35-8.75h3.24c0,3.53,2.59,5.75,6.07,5.75,5,0,6.12-3.68,6.12-8v-2.28h-.08a8.42,8.42,0,0,1-6.6,3.16c-5.56,0-9.08-4.65-9.08-10s3.57-10.13,9.2-10.13a7.93,7.93,0,0,1,6.48,3.25h.08V270h3.24Zm-15.68-8.79c0,3.73,2.19,7.25,6.24,7.25s6.36-3.36,6.36-7.21-2.39-6.89-6.4-6.89C596.92,272.5,594.49,275.78,594.49,279.35Z"/><path class="cls-1" d="M643.14,289.07h-3.4V261.69h-7.38v-3.16h18.23v3.16h-7.45Z"/><path class="cls-1" d="M651.36,279.59a10,10,0,1,1,10,10A10,10,0,0,1,651.36,279.59Zm3.24,0a6.77,6.77,0,1,0,6.76-7.05A6.74,6.74,0,0,0,654.6,279.55Z"/><path class="cls-1" d="M685.22,282.91l5.92-14.34,6,14.34L702.76,270h3.69L697,290.41l-5.87-14.18-5.88,14.18L675.91,270h3.68Z"/><path class="cls-1" d="M730.06,289.07h-3.24v-2.64h-.08a8,8,0,0,1-6.56,3.16c-5.59,0-9.12-4.73-9.12-10,0-5.43,3.45-10.09,9.16-10.09a8.23,8.23,0,0,1,6.52,3.25h.08V270h3.24Zm-15.68-9.72c0,3.73,2.19,7.25,6.24,7.25s6.36-3.36,6.36-7.21-2.39-6.89-6.4-6.89C716.82,272.5,714.38,275.78,714.38,279.35Z"/><path class="cls-1" d="M742.17,272.1h.08c1.14-1.5,2.11-2.6,4.22-2.6a5.69,5.69,0,0,1,2.91.9l-1.54,3a3.18,3.18,0,0,0-1.94-.85c-3.57,0-3.73,4.58-3.73,7.05v9.52h-3.24V270h3.24Z"/><path class="cls-1" d="M769.84,286.43h-.09a8.08,8.08,0,0,1-6.56,3.16c-5.59,0-9.11-4.73-9.11-10,0-5.43,3.44-10.09,9.15-10.09a8.21,8.21,0,0,1,6.52,3.25h.09v-17.1h3.23v33.42h-3.23Zm-12.44-7.08c0,3.73,2.19,7.25,6.24,7.25s6.36-3.36,6.36-7.21-2.39-6.89-6.4-6.89C759.83,272.5,757.4,275.78,757.4,279.35Z"/><path class="cls-1" d="M789.81,274.45a3,3,0,0,0-2.6-1.95,2.3,2.3,0,0,0-2.34,2.11c0,1.74,2.18,2.39,4.41,3.32s4.41,2.27,4.41,5.47a6.22,6.22,0,0,1-6.44,6.19,6.85,6.85,0,0,1-6.72-4.81l2.88-1.22c.81,1.78,1.74,3,3.88,3a2.9,2.9,0,0,0,3.08-2.92c0-4.25-8.58-2.79-8.58-8.79a5.43,5.43,0,0,1,5.67-5.39,5.75,5.75,0,0,1,5.06,3.53Z"/><path class="cls-1" d="M834.2,289.07H831v-2.64h-.08a8,8,0,0,1-6.56,3.16c-5.6,0-9.12-4.73-9.12-10,0-5.43,3.44-10.09,9.15-10.09a8.23,8.23,0,0,1,6.53,3.25H831V270h3.24Zm-15.68-9.72c0,3.73,2.19,7.25,6.24,7.25s6.36-3.36,6.36-7.21-2.39-6.89-6.4-6.89C821,272.5,818.52,275.78,818.52,279.35Z"/><path class="cls-1" d="M461.11,321c-1.22-2.11-2.67-3.32-5.27-3.32a4.84,4.84,0,0,0-5.06,4.74c0,2.63,2.71,3.84,4.78,4.78l2,.89c4,1.74,7.33,3.72,7.33,8.58a9.64,9.64,0,0,1-19.12,1.54l3.32-.93a6.3,6.3,0,0,0,6.12,5.67,6.14,6.14,0,0,0,6.28-5.95c0-3.57-2.8-4.78-5.63-6.08l-1.87-.81c-3.56-1.62-6.64-3.44-6.64-7.82,0-4.73,4-7.77,8.55-7.77a8.75,8.75,0,0,1,7.89,4.74Z"/><path class="cls-1" d="M476.1,345.55h-3.24V312.14h3.24Z"/><path class="cls-1" d="M502.55,345.55h-3.24v-2.63h-.08a8,8,0,0,1-6.57,3.16c-5.59,0-9.11-4.74-9.11-10,0-5.43,3.44-10.09,9.15-10.09a8.25,8.25,0,0,1,6.53,3.24h.08v-2.71h3.24Zm-15.68-9.72c0,3.73,2.19,7.25,6.24,7.25s6.36-3.36,6.36-7.21-2.39-6.88-6.4-6.88C489.3,329,486.87,332.27,486.87,335.83Z"/><path class="cls-1" d="M517.9,339.32l5.67-12.8h3.64l-9.31,20.29-9.36-20.29h3.69Z"/><path class="cls-1" d="M535,336.73a6.16,6.16,0,0,0,6.24,6.35c2.75,0,4.53-1.66,5.79-3.93l2.76,1.58a9.62,9.62,0,0,1-8.79,5.35c-5.67,0-9.32-4.33-9.32-9.8,0-5.63,3.28-10.29,9.23-10.29,6.12,0,9.36,5.06,9,10.74ZM546.53,334a5.8,5.8,0,0,0-5.58-5,6,6,0,0,0-5.8,5Z"/><path class="cls-1" d="M562.74,334.29v3h-8.31v-3Z"/><path class="cls-1" d="M572.42,345.55h-3.24v-16H567.4v-3h1.78v-7.58c0-1.58,0-3.56.85-4.94a5.52,5.52,0,0,1,4.9-2.39,7.5,7.5,0,0,1,2.31.41v3.28a6.43,6.43,0,0,0-2.19-.45c-2.63,0-2.63,1.87-2.63,5.23v6.44h4.82v3h-4.82Z"/><path class="cls-1" d="M586.11,328.58h.08c1.13-1.5,2.1-2.59,4.21-2.59a5.74,5.74,0,0,1,2.92.89l-1.54,3a3.16,3.16,0,0,0-1.95-.85c-3.56,0-3.72,4.58-3.72,7.05v9.51h-3.24v-19h3.24Z"/><path class="cls-1" d="M601.26,336.73a6.16,6.16,0,0,0,6.23,6.35c2.76,0,4.54-1.66,5.79-3.93l2.76,1.58a9.6,9.6,0,0,1-8.79,5.35c-5.67,0-9.32-4.33-9.32-9.8,0-5.63,3.28-10.29,9.24-10.29,6.11,0,9.35,5.06,9,10.74ZM612.8,334a5.82,5.82,0,0,0-5.59-5,6,6,0,0,0-5.79,5Z"/><path class="cls-1" d="M625.32,336.73a6.16,6.16,0,0,0,6.23,6.35c2.76,0,4.54-1.66,5.79-3.93l2.76,1.58a9.6,9.6,0,0,1-8.79,5.35c-5.67,0-9.32-4.33-9.32-9.8,0-5.63,3.28-10.29,9.24-10.29s9.35,5.06,9,10.74ZM636.86,334a5.81,5.81,0,0,0-5.59-5,6,6,0,0,0-5.79,5Z"/><path class="cls-1" d="M677.12,321c-1.21-2.11-2.67-3.32-5.26-3.32a4.85,4.85,0,0,0-5.07,4.74c0,2.63,2.72,3.84,4.78,4.78l2,.89c4,1.74,7.33,3.72,7.33,8.58a9.64,9.64,0,0,1-19.12,1.54l3.32-.93a6.3,6.3,0,0,0,6.12,5.67,6.14,6.14,0,0,0,6.28-5.95c0-3.57-2.8-4.78-5.63-6.08l-1.87-.81c-3.56-1.62-6.64-3.44-6.64-7.82,0-4.73,4-7.77,8.55-7.77a8.74,8.74,0,0,1,7.89,4.74Z"/><path class="cls-1" d="M692,337.13c0,3.2.36,5.95,4.29,5.95s4.29-2.75,4.29-5.95V326.52h3.24v11c0,5.07-1.9,8.59-7.53,8.59s-7.53-3.52-7.53-8.59v-11H692Z"/><path class="cls-1" d="M715.8,329.23h.08a8,8,0,0,1,6.57-3.24c5.58,0,9.11,4.82,9.11,10.09,0,5.42-3.44,10-9.16,10a8,8,0,0,1-6.52-3.2h-.08v13.37h-3.24V326.52h3.24Zm-.16,6.6c0,3.73,2.19,7.25,6.24,7.25s6.36-3.36,6.36-7.21-2.39-6.88-6.4-6.88C718.07,329,715.64,332.27,715.64,335.83Z"/><path class="cls-1" d="M742.21,329.23h.08a8,8,0,0,1,6.57-3.24c5.58,0,9.11,4.82,9.11,10.09,0,5.42-3.44,10-9.16,10a8,8,0,0,1-6.52-3.2h-.08v13.37H739V326.52h3.24Zm-.16,6.6c0,3.73,2.19,7.25,6.24,7.25s6.36-3.36,6.36-7.21-2.39-6.88-6.4-6.88C744.48,329,742.05,332.27,742.05,335.83Z"/><path class="cls-1" d="M768.7,345.55h-3.24V312.14h3.24Z"/><path class="cls-1" d="M774.61,326.52h3.77l6.73,13.65,6.15-13.65H795l-14.06,29.73h-3.68l6.15-12.48Z"/><path class="cls-1" d="M839.79,321.7a13.07,13.07,0,0,0-9.32-4.05c-6.8,0-12.31,5.91-12.31,12.64a12.68,12.68,0,0,0,12.39,12.63,13.37,13.37,0,0,0,9.24-4.05v4.21a15.7,15.7,0,0,1-9.12,3,15.8,15.8,0,1,1,0-31.59,14.73,14.73,0,0,1,9.12,3Z"/><path class="cls-1" d="M851.82,312.14v16.61l.08.08a6.38,6.38,0,0,1,5.43-2.84c5.26,0,6.48,3.81,6.48,8.26v11.3h-3.24V334.82c0-3.08-.25-5.83-4-5.83-4.46,0-4.74,4.13-4.74,7.53v9h-3.24V312.14Z"/><path class="cls-1" d="M890.38,345.55h-3.24v-2.63h-.08a8,8,0,0,1-6.56,3.16c-5.6,0-9.12-4.74-9.12-10,0-5.43,3.44-10.09,9.15-10.09a8.25,8.25,0,0,1,6.53,3.24h.08v-2.71h3.24Zm-15.68-9.72c0,3.73,2.19,7.25,6.24,7.25s6.36-3.36,6.36-7.21-2.39-6.88-6.4-6.88C877.13,329,874.7,332.27,874.7,335.83Z"/><path class="cls-1" d="M904,319.35a2.31,2.31,0,1,1-2.31-2.31A2.34,2.34,0,0,1,904,319.35Zm-.69,26.2H900v-19h3.24Z"/><path class="cls-1" d="M916.3,328.83h.08a6.38,6.38,0,0,1,5.43-2.84c5.27,0,6.48,3.81,6.48,8.26v11.3h-3.24V334.82c0-3.08-.24-5.83-4-5.83-4.45,0-4.74,4.13-4.74,7.53v9h-3.24v-19h3.24Z"/><path class="cls-1" d="M140.85,182l-1.61-.92-.39-.2c-.78-.43-1.71-.91-2.73-1.41l-.35-.17c-.84-.4-1.74-.8-2.69-1.22l-.86-.35c-.66-.28-1.35-.55-2.07-.82s-1.16-.43-1.75-.63-1-.35-1.49-.51l-1.67-.52-.91-.26c-1.42-.4-2.64-.71-3.87-1l-.75-.18-1.73-.33c-.58-.11-1-.2-1.51-.27l-1.73-.27c-.54-.08-1.11-.15-1.67-.21l-1.58-.18-2.11-.16-1.25-.08c-1.15-.06-2.31-.09-3.49-.09a43.68,43.68,0,0,1-39.57-24.64,103.33,103.33,0,0,1,39.57-7.77A104.75,104.75,0,0,1,209,251.75c-3.5,51.6-45.19,93.43-96.78,97.11A104.69,104.69,0,0,1,.85,257.79H2.33C19,257.75,34,267,42.4,281.3a72.28,72.28,0,0,0,134.46-36.81c0-22.27-10-43.87-27.79-56.88C147.06,186.15,140.85,182,140.85,182Z"/><path class="cls-1" d="M104.64,233.43a104.64,104.64,0,0,1-16.49-208c61.29-9.63,115.65,35.69,120.71,94.38h0c-17.07,0-32.36-9.75-40.3-24.85a71.89,71.89,0,0,0-66.33-38.37C65.9,57.76,35.61,86.54,32.66,122.77a72.3,72.3,0,0,0,72,78.25c1.36,0,2.71-.07,4-.15a43.65,43.65,0,0,1,35.54,24.76A103.27,103.27,0,0,1,104.64,233.43Z"/><rect class="cls-1" x="321.06" width="8.1" height="364.35"/><path class="cls-1" d="M477.5,35.78c-2.26-3.79-5.16-5.72-9.75-5.72-4.84,0-10.15,3.3-10.15,8.62,0,4.75,4.67,7.25,8.46,8.7l4.35,1.69c8.62,3.39,15.07,8.14,15.07,18.29,0,11-8.55,18.94-19.42,18.94-9.83,0-17.49-7.25-18.78-17l7.66-1.61c-.08,6.68,5.23,11.52,11.76,11.52s11.2-5.48,11.2-11.85S472.66,58,467.43,55.84l-4.19-1.77c-6.93-3-13.22-6.93-13.22-15.39,0-9.83,8.7-15.71,17.89-15.71a17.32,17.32,0,0,1,15.63,9.18Z"/><path class="cls-1" d="M517.47,78.08h18.45V85h-26V24.26h7.57Z"/><path class="cls-1" d="M565.66,69.78,558.73,85h-8.14l29-63.33,29,63.33h-8.14l-6.93-15.23Zm13.94-31.5L568.8,62.85h21.6Z"/><path class="cls-1" d="M640.2,69.22l18-45h8.3l-26.35,64-26.43-64h8.3Z"/><path class="cls-1" d="M687.83,24.26h32.64v6.93H695.41v17h24.33v6.93H695.41v23h25.06V85H687.83Z"/><path class="cls-1" d="M762.37,56.16v6.05H744.73V56.16Z"/><path class="cls-1" d="M796.3,31.19V48.27h21.11V55.2H796.3V85h-7.57V24.26h29.41v6.93Z"/><path class="cls-1" d="M880.91,85h-9.18l-17.89-25.7H850.7V85h-7.58V24.26h9.19c5.4,0,11.2.08,16,2.82a16.8,16.8,0,0,1,8,14.5c0,8.7-5.8,16-14.58,17ZM850.7,53h2.41c7.74,0,16.12-1.45,16.12-11.12,0-9.51-9-10.88-16.52-10.88h-2Z"/><path class="cls-1" d="M903,24.26h32.63v6.93H910.57v17h24.34v6.93H910.57v23h25.06V85H903Z"/><path class="cls-1" d="M961.1,24.26h32.64v6.93H968.68v17H993v6.93H968.68v23h25.06V85H961.1Z"/><path class="cls-1" d="M459.13,180.5l-6.93,15.22h-8.14l29-63.33,29,63.33h-8.13L487,180.5ZM473.07,149l-10.8,24.58h21.59Z"/><path class="cls-1" d="M530.85,188.79H549.3v6.93h-26V135h7.57Z"/><path class="cls-1" d="M578,188.79h18.45v6.93h-26V135H578Z"/><path class="cls-1" d="M624.89,195.72h-7.57V135h7.57Z"/><path class="cls-1" d="M661,180.5l-6.93,15.22h-8.14l29-63.33,29,63.33H695.8l-6.92-15.22ZM674.94,149l-10.8,24.58h21.59Z"/><path class="cls-1" d="M724.42,132.07,770,179.85V135h7.57v63.25L732,150.44v45.28h-7.57Z"/><path class="cls-1" d="M848.76,146.57a24.62,24.62,0,0,0-16-6c-13.62,0-24,11.36-24,24.82,0,13.29,10.32,24.65,23.85,24.65a24.3,24.3,0,0,0,16.2-6.28v8.94a32.88,32.88,0,0,1-16,4.27,31.44,31.44,0,0,1-31.66-31.34,31.93,31.93,0,0,1,32.31-32,29.35,29.35,0,0,1,15.31,4.11Z"/><path class="cls-1" d="M873.91,135h32.63v6.93H881.48v17h24.34v6.93H881.48v23h25.06v6.93H873.91Z"/></svg>