<svg xmlns="http://www.w3.org/2000/svg" width="39.124" height="31.795" viewBox="0 0 39.124 31.795">
  <g id="twitter-seeklogo.com" transform="translate(0)">
    <path id="Path_2535" data-name="Path 2535" d="M39.124,4.586a16.049,16.049,0,0,1-4.61,1.264,8.051,8.051,0,0,0,3.529-4.441,16.075,16.075,0,0,1-5.1,1.948,8.034,8.034,0,0,0-13.678,7.321A22.788,22.788,0,0,1,2.724,2.291,8.035,8.035,0,0,0,5.208,13.007a8,8,0,0,1-3.636-1c0,.033,0,.067,0,.1A8.031,8.031,0,0,0,8.01,19.975a8.046,8.046,0,0,1-3.625.138,8.035,8.035,0,0,0,7.5,5.574,16.106,16.106,0,0,1-9.969,3.436A16.328,16.328,0,0,1,0,29.011a22.72,22.72,0,0,0,12.3,3.606c14.764,0,22.838-12.231,22.838-22.838q0-.522-.023-1.038a16.314,16.314,0,0,0,4.005-4.155" transform="translate(0 -0.822)" fill="#fff"/>
  </g>
</svg>
