<svg xmlns="http://www.w3.org/2000/svg" width="54.991" height="44.689" viewBox="0 0 54.991 44.689">
  <g id="twitter-seeklogo.com" opacity="0.416">
    <path id="Path_2535" data-name="Path 2535" d="M54.991,6.112a22.558,22.558,0,0,1-6.48,1.776,11.316,11.316,0,0,0,4.961-6.242,22.6,22.6,0,0,1-7.164,2.738,11.292,11.292,0,0,0-19.225,10.29A32.03,32.03,0,0,1,3.828,2.887,11.293,11.293,0,0,0,7.32,17.949a11.237,11.237,0,0,1-5.11-1.411c0,.047,0,.094,0,.142a11.288,11.288,0,0,0,9.05,11.062,11.31,11.31,0,0,1-5.1.193A11.293,11.293,0,0,0,16.7,35.77,22.638,22.638,0,0,1,2.691,40.6,22.95,22.95,0,0,1,0,40.442a31.934,31.934,0,0,0,17.294,5.069c20.752,0,32.1-17.191,32.1-32.1q0-.734-.033-1.459a22.93,22.93,0,0,0,5.63-5.84" transform="translate(0 -0.822)" fill="#212322"/>
  </g>
</svg>
